<svg xmlns="http://www.w3.org/2000/svg" width="15.147" height="12.483" viewBox="0 0 15.147 12.483">
  <path id="icons8-megaphone-50" d="M17.361,8.027a1.673,1.673,0,0,0-.4.068L5.218,11.584A1.71,1.71,0,0,0,4,13.218v1.713a1.71,1.71,0,0,0,1.218,1.634l1.892.562A2.959,2.959,0,0,0,12.723,18.8l4.234,1.259a1.718,1.718,0,0,0,2.19-1.633V9.728a1.721,1.721,0,0,0-1.393-1.672A1.659,1.659,0,0,0,17.361,8.027ZM8.2,17.45l3.438,1.022A1.851,1.851,0,0,1,8.2,17.45Z" transform="translate(-4 -8.025)" fill="#e8d90d"/>
</svg>
