<svg xmlns="http://www.w3.org/2000/svg" xmlns:xlink="http://www.w3.org/1999/xlink" width="598.664" height="380.4" viewBox="0 0 598.664 380.4">
  <defs>
    <clipPath id="clip-path">
      <path id="Path_103533" data-name="Path 103533" d="M290.482,304.977c-13.8-3.676-21.855-.977-21.855-.977l23.655,16.649,20.066-17.558-7.738-9.986Z" transform="translate(-268.627 -293.105)" fill="#263238"/>
    </clipPath>
    <clipPath id="clip-path-2">
      <path id="Path_103535" data-name="Path 103535" d="M333.5,309c-13.3,5.206-18.2,12.146-18.2,12.146l28.922-.578,5.785-26.029-12.147-3.471Z" transform="translate(-315.302 -291.067)" fill="#263238"/>
    </clipPath>
    <clipPath id="clip-path-3">
      <path id="Path_103539" data-name="Path 103539" d="M464.512,143.883a3.518,3.518,0,0,0-1.606,3.025c-.15,6.552,5.714,12.653,10.15,16.78,1.306,1.215-.344,1.085-2.195.958a12.222,12.222,0,0,0-2.7,0c-1.289.246-4.631,3.776-5.348,4.311,1.075,1.341,2.084,1.2,3.229,1.07a4.9,4.9,0,0,1,2.8.275c2.319,1.033.849,3.984-1.311,4.333a4.54,4.54,0,0,1-4.711-1.667c-1.533.834-1.779,5.8-2.984,7.1,1.663.914,11.363,2.619,13.639,2.591,4.859-.058,7.84-2.748,9.4-6.64.02.018-.293-1.425,2.17-3.741,8.141-7.666-.568-22.658-9.438-25.268-4.539-1.336-7.439.072-9.068-4.439.116.323-1.834,1.151-2.027,1.314" transform="translate(-459.835 -142.569)" fill="none"/>
    </clipPath>
    <linearGradient id="linear-gradient" x1="-10.55" y1="5.33" x2="-10.527" y2="5.33" gradientUnits="objectBoundingBox">
      <stop offset="0" stop-color="#343a44"/>
      <stop offset="0.3" stop-color="#232c3d"/>
      <stop offset="0.64" stop-color="#172339"/>
      <stop offset="1" stop-color="#142138"/>
    </linearGradient>
    <clipPath id="clip-path-4">
      <path id="Path_103541" data-name="Path 103541" d="M433.258,253.156c-36.673,13.911-64.189,3.647-64.189,3.647v4.6s25.783,14.181,62.695,2.273c48.283-15.576,52.368-87.254,52.368-87.254l-4.2-2.129s-10.005,64.956-46.678,78.865" transform="translate(-369.069 -174.291)" fill="none"/>
    </clipPath>
  </defs>
  <g id="Error" transform="translate(-1279 -1687)">
    <text id="ERROR_404" data-name="ERROR 404" transform="translate(1470.73 1745.22)" fill="#ff5e69" font-size="39" font-family="Roboto-Black, Roboto" font-weight="800"><tspan x="0" y="0">ERROR 404</tspan></text>
    <text id="PAGE_NOT_FOUND" data-name="PAGE NOT FOUND" transform="translate(1465.266 1787.79)" fill="#277fd9" font-size="19" font-family="Raleway-Medium, Raleway" font-weight="500"><tspan x="0" y="0" letter-spacing="0.149em">P</tspan><tspan y="0" letter-spacing="0.174em">A</tspan><tspan y="0" letter-spacing="0.2em">G</tspan><tspan y="0" letter-spacing="0.199em">E</tspan><tspan y="0" xml:space="preserve" letter-spacing="0.2em"> N</tspan><tspan y="0" letter-spacing="0.178em">O</tspan><tspan y="0" letter-spacing="0.17em">T</tspan><tspan y="0" letter-spacing="0.2em"> </tspan><tspan y="0" letter-spacing="0.186em">F</tspan><tspan y="0" letter-spacing="0.2em">OUN</tspan><tspan y="0">D</tspan></text>
    <path id="Path_103531" data-name="Path 103531" d="M422.507,246.54l39.478,85.33,4.45-.013L432.3,241Z" transform="translate(1364.08 1735.53)" fill="#7d8488"/>
    <path id="Path_103532" data-name="Path 103532" d="M395.88,247.446,356.4,330.954l-4.45-.014,34.138-85.388Z" transform="translate(1349.873 1736.447)" fill="#7d8488"/>
    <g id="Group_114805" data-name="Group 114805" transform="translate(1601.72 2039.128)">
      <g id="Group_114804" data-name="Group 114804" transform="translate(0)" clip-path="url(#clip-path)">
        <rect id="Rectangle_57783" data-name="Rectangle 57783" width="48.077" height="51.544" transform="translate(-13.139 17.897) rotate(-53.716)" fill="#263238"/>
      </g>
    </g>
    <path id="Path_103534" data-name="Path 103534" d="M423.327,220.8s-44.349,22.732-60.017,29.532-68.973,60.18-68.973,60.18,6.824,13.9,10.238,11.456c30.1-21.519,57.826-40.773,75.643-47.492,35.284-13.3,45.117-16.2,54.155-26.669,0,0-5.3-12.589-11.047-27.007" transform="translate(1338.271 1731.462)" fill="#41494d"/>
    <g id="Group_114809" data-name="Group 114809" transform="translate(1657.794 2036.679)">
      <g id="Group_114808" data-name="Group 114808" transform="translate(0 0)" clip-path="url(#clip-path-2)">
        <rect id="Rectangle_57785" data-name="Rectangle 57785" width="34.706" height="30.077" transform="translate(0 0)" fill="#263238"/>
      </g>
    </g>
    <path id="Path_103536" data-name="Path 103536" d="M416.565,215.992s-41.253,4.451-56.291,12.548S333.264,310.9,333.264,310.9s11.681,6.341,13.127,2.4A540.534,540.534,0,0,1,371,256.658c14.823-2.708,49.154,14,73.967-10.441,0,0-21.459-16.343-28.4-30.225" transform="translate(1346.109 1730.494)" fill="#515b60"/>
    <path id="Path_103537" data-name="Path 103537" d="M465.429,176.229a55.011,55.011,0,0,0-4.856,11.11l-16.968-1.568s8.76-13.274,8.09-21.323Z" transform="translate(1368.328 1720.115)" fill="#fec4ad"/>
    <path id="Path_103538" data-name="Path 103538" d="M461.267,151.817c-.964-.256-4.589-1.254-5.323-.955-1.017.414.166,1.749-.551,2.564-1.158,1.319-3.479,1.347-4.976,2.148a9.893,9.893,0,0,0-4.022,3.7c-1.382,2.428,3.65,7.847,4.438,11.909,1.648,8.5,12.387,9.753,21.112,7.152,3.12-.93,5.989-3.735,7.69-6.456,2-3.2.872-8.544-.8-11.728A14.877,14.877,0,0,0,474.1,155.4c-1.573-1.084-2.007-5.6-3.9-5.916,0,0-6.761,2.909-8.931,2.333" transform="translate(1368.842 1717.102)" fill="#fec4ad"/>
    <g id="Group_114813" data-name="Group 114813" transform="translate(1831.432 1858.278)">
      <g id="Group_114812" data-name="Group 114812" transform="translate(0 0)" clip-path="url(#clip-path-3)">
        <rect id="Rectangle_57787" data-name="Rectangle 57787" width="51.503" height="52.153" transform="translate(-19.873 17.338) rotate(-41.103)" fill="url(#linear-gradient)"/>
      </g>
    </g>
    <path id="Path_103540" data-name="Path 103540" d="M473.145,176.867c3.557,39.682-42.134,77.729-42.134,77.729s-29.834,1.122-28.4-30.225c0,0,2.321-5.7,20.791-22.437,12.339-11.184,21.008-27.873,29.692-27.541,23.715.907,20.052,2.475,20.052,2.475" transform="translate(1360.063 1722.116)" fill="#263238"/>
    <g id="Group_114817" data-name="Group 114817" transform="translate(1722.388 1896.388)">
      <g id="Group_114816" data-name="Group 114816" transform="translate(0 0)" clip-path="url(#clip-path-4)">
        <rect id="Rectangle_57789" data-name="Rectangle 57789" width="115.062" height="101.291" fill="#c8c8c8"/>
      </g>
    </g>
    <path id="Path_103542" data-name="Path 103542" d="M457.64,211.111s4.393,15.225,4.638,22.814-3,33.352-3,33.352l6.99.885s6.211-30.708,6.357-40.73-5.633-26.256-5.633-26.256Z" transform="translate(1371.155 1727.511)" fill="#f8d2a1"/>
    <path id="Path_103543" data-name="Path 103543" d="M459.061,216.78c5.075,22.171,2.971,51.886,2.971,51.886l7.584.483c8.315-17.393,7.536-55.93,3.139-72.143-2.583-9.527-4.105-19.131-10.55-20.612-4.029-.926-12.318,2.023-13.429,6.006-2.409,8.641,7.8,23.5,10.285,34.381" transform="translate(1369.297 1722.486)" fill="#263238"/>
    <path id="Path_103544" data-name="Path 103544" d="M456.717,260.492c-1.674,3.187-2.432,5.524-1.447,6.328.681.556,1.774-2.54,3.1-3.644a9.571,9.571,0,0,1-.384,5.727c-.933,2.3-.852,4.262.894,4.432s4.587.054,5.218-1.394,2.068-7.482,2.844-9.492-.254-4.316.042-5.466-5.157-3.076-5.157-3.076c-.3.463-1.979,2.754-1.979,2.754a17.687,17.687,0,0,1-1.9,2,6.75,6.75,0,0,0-1.223,1.827" transform="translate(1370.589 1738.129)" fill="#f8d2a1"/>
    <line id="Line_2218" data-name="Line 2218" y2="52.859" transform="translate(1785.908 1687)" fill="none" stroke="#d4dbe2" stroke-miterlimit="10" stroke-width="0.25"/>
    <path id="Path_103545" data-name="Path 103545" d="M432.836,62.595a9.271,9.271,0,1,1-8.53-9.957,9.271,9.271,0,0,1,8.53,9.957" transform="translate(1362.432 1697.594)" fill="#ffba01"/>
    <path id="Path_103546" data-name="Path 103546" d="M473.053,68.276H385.5L423.82,40.395h10.918Z" transform="translate(1356.629 1695.134)" fill="#d2dceb"/>
    <line id="Line_2219" data-name="Line 2219" y2="52.859" transform="translate(1373.759 1687)" fill="none" stroke="#d4dbe2" stroke-miterlimit="10" stroke-width="0.25"/>
    <path id="Path_103547" data-name="Path 103547" d="M89.77,62.595a9.271,9.271,0,1,1-8.53-9.957,9.271,9.271,0,0,1,8.53,9.957" transform="translate(1293.349 1697.594)" fill="#ffba01"/>
    <path id="Path_103548" data-name="Path 103548" d="M129.987,68.276H42.438L80.754,40.395H91.672Z" transform="translate(1287.546 1695.134)" fill="#d2dceb"/>
    <line id="Line_2220" data-name="Line 2220" x2="598.664" transform="translate(1279 2066.982)" fill="none" stroke="#a6aeba" stroke-miterlimit="10" stroke-width="0.5"/>
    <path id="Path_103549" data-name="Path 103549" d="M181.147,166.435a36.9,36.9,0,0,1,5.2-8.55c3.355-4.028,8.358-10.735,8.358-10.735s-2.44,4.774-5.752,10.168a41.231,41.231,0,0,1-7.809,9.117" transform="translate(1315.478 1716.631)" fill="#50cc85"/>
    <path id="Path_103550" data-name="Path 103550" d="M184.035,160.008a21.386,21.386,0,0,0,5.946-9.1c2.231-6.179,4.264-10.883,4.264-10.883a87.277,87.277,0,0,0-6.89,11.671c-2.071,4.778-3.319,8.309-3.319,8.309" transform="translate(1316.059 1715.198)" fill="#50cc85"/>
    <path id="Path_103551" data-name="Path 103551" d="M181.482,166.142a77.733,77.733,0,0,0,2.325-12.707c.382-5.639.339-9.182.339-9.182s-2.451,10.233-3.19,14.58a14.071,14.071,0,0,0,.526,7.309" transform="translate(1315.392 1716.048)" fill="#50cc85"/>
    <path id="Path_103552" data-name="Path 103552" d="M180.636,170.474a41.094,41.094,0,0,0-1.425-13.789,43.333,43.333,0,0,1-2.156-10.643,43.956,43.956,0,0,0,.184,12.693,83.991,83.991,0,0,0,3.4,11.74" transform="translate(1314.576 1716.408)" fill="#50cc85"/>
    <path id="Path_103553" data-name="Path 103553" d="M180.472,166.636s5.169-4.415,7.782-5.454a31.011,31.011,0,0,0,6.252-4.064s-4.492,5.75-7,6.889-7.035,2.63-7.035,2.63" transform="translate(1315.342 1718.639)" fill="#50cc85"/>
    <path id="Path_103554" data-name="Path 103554" d="M179.768,173.2a20.856,20.856,0,0,0-1.809-9.6,50.417,50.417,0,0,1-2.845-8.417s-.137,7.646,1.383,10.514,3.271,7.507,3.271,7.507" transform="translate(1314.262 1718.249)" fill="#50cc85"/>
    <path id="Path_103555" data-name="Path 103555" d="M179.389,168.305a16.723,16.723,0,0,1,5.835-2.385,14.108,14.108,0,0,0,3.628-.79,6.78,6.78,0,0,1-4.981,3.092c-3.532.446-4.482.083-4.482.083" transform="translate(1315.123 1720.252)" fill="#50cc85"/>
    <path id="Path_103556" data-name="Path 103556" d="M177.772,177.023c.642-2.5,1.468-6.361,2.321-8.943,1.88-5.7,6.354-13.037,6.354-13.037-2.733,6.061-4.729,9.469-6.1,14.7-.545,2.071-1.486,4.946-2,6.825-.082.514-.494.947-.578.46" transform="translate(1314.798 1718.221)" fill="#50cc85"/>
    <path id="Path_103557" data-name="Path 103557" d="M180.037,168.933a39.252,39.252,0,0,0-2.272-10.394c-1.98-5.209-4.688-13.682-4.688-13.682s.8,5.644,2.265,12.211a43.836,43.836,0,0,0,4.695,11.866" transform="translate(1313.853 1716.17)" fill="#77e6a6"/>
    <path id="Path_103558" data-name="Path 103558" d="M178.792,161.279a22.721,22.721,0,0,1-2.829-11.2c-.106-6.982-.523-12.414-.523-12.414s2.46,8.6,2.889,14.115.462,9.5.462,9.5" transform="translate(1314.328 1714.722)" fill="#77e6a6"/>
    <path id="Path_103559" data-name="Path 103559" d="M178.912,167.936a82.745,82.745,0,0,1,2.059-13.577c1.568-5.8,2.835-9.348,2.835-9.348s-1.076,11.134-1.837,15.76a14.965,14.965,0,0,1-3.058,7.165" transform="translate(1315.027 1716.201)" fill="#77e6a6"/>
    <path id="Path_103560" data-name="Path 103560" d="M178.953,172.407a43.65,43.65,0,0,1,6.2-13.368A46.024,46.024,0,0,0,191,149.087a46.7,46.7,0,0,1-4.575,12.694,89.475,89.475,0,0,1-7.476,10.626" transform="translate(1315.036 1717.022)" fill="#77e6a6"/>
    <path id="Path_103561" data-name="Path 103561" d="M180.725,169.4s-3.669-6.225-5.936-8.174a32.975,32.975,0,0,1-4.878-6.248s2.525,7.333,4.652,9.345,6.162,5.077,6.162,5.077" transform="translate(1313.215 1718.207)" fill="#77e6a6"/>
    <path id="Path_103562" data-name="Path 103562" d="M178.625,175.427s.872-4.168,5.142-9.028a53.651,53.651,0,0,0,5.77-7.476s-2.506,7.732-5.026,10.09-5.885,6.414-5.885,6.414" transform="translate(1314.97 1719.002)" fill="#77e6a6"/>
    <path id="Path_103563" data-name="Path 103563" d="M180.465,171.184a17.772,17.772,0,0,0-5.04-4.415,14.969,14.969,0,0,1-3.373-2.051,7.21,7.21,0,0,0,3.936,4.832c3.4,1.671,4.477,1.634,4.477,1.634" transform="translate(1313.646 1720.169)" fill="#77e6a6"/>
    <path id="Path_103564" data-name="Path 103564" d="M178.942,180.461c.22-2.733.724-6.9.76-9.791.082-6.377-1.877-15.3-1.877-15.3.65,7.036,1.477,11.152,1.05,16.882-.169,2.271-.217,5.485-.356,7.549-.095.547.169,1.123.422.663" transform="translate(1314.809 1718.286)" fill="#50cc85"/>
    <path id="Path_103565" data-name="Path 103565" d="M177.871,169.025a36.9,36.9,0,0,0-5.2-8.55c-3.355-4.028-8.358-10.735-8.358-10.735s2.44,4.774,5.752,10.168a41.232,41.232,0,0,0,7.809,9.117" transform="translate(1312.087 1717.153)" fill="#50cc85"/>
    <path id="Path_103566" data-name="Path 103566" d="M174.42,162.6a21.386,21.386,0,0,1-5.946-9.1c-2.231-6.179-4.264-10.882-4.264-10.882a87.223,87.223,0,0,1,6.89,11.67c2.071,4.778,3.319,8.309,3.319,8.309" transform="translate(1312.067 1715.719)" fill="#50cc85"/>
    <path id="Path_103567" data-name="Path 103567" d="M175.836,168.732a77.764,77.764,0,0,1-2.325-12.707c-.382-5.642-.339-9.183-.339-9.183s2.451,10.234,3.19,14.581a14.075,14.075,0,0,1-.526,7.309" transform="translate(1313.871 1716.569)" fill="#50cc85"/>
    <path id="Path_103568" data-name="Path 103568" d="M176.789,173.064a41.076,41.076,0,0,1,1.424-13.789,43.261,43.261,0,0,0,2.156-10.643,43.9,43.9,0,0,1-.184,12.691,84.127,84.127,0,0,1-3.4,11.741" transform="translate(1314.582 1716.93)" fill="#50cc85"/>
    <path id="Path_103569" data-name="Path 103569" d="M178.624,169.225s-5.17-4.415-7.783-5.454a31.012,31.012,0,0,1-6.252-4.064s4.492,5.75,7,6.89,7.035,2.629,7.035,2.629" transform="translate(1312.143 1719.16)" fill="#50cc85"/>
    <path id="Path_103570" data-name="Path 103570" d="M177.765,175.793a20.856,20.856,0,0,1,1.809-9.6,50.414,50.414,0,0,0,2.845-8.417s.137,7.646-1.383,10.514-3.271,7.507-3.271,7.507" transform="translate(1314.787 1718.77)" fill="#50cc85"/>
    <path id="Path_103571" data-name="Path 103571" d="M178.941,170.9a16.721,16.721,0,0,0-5.835-2.385,14.111,14.111,0,0,1-3.628-.79,6.78,6.78,0,0,0,4.981,3.092c3.532.447,4.482.083,4.482.083" transform="translate(1313.128 1720.774)" fill="#50cc85"/>
    <path id="Path_103572" data-name="Path 103572" d="M180.427,179.613c-.642-2.5-1.469-6.361-2.321-8.943-1.88-5.7-6.354-13.037-6.354-13.037,2.733,6.061,4.729,9.468,6.1,14.7.545,2.071,1.486,4.946,2,6.825.082.514.494.947.578.46" transform="translate(1313.586 1718.743)" fill="#50cc85"/>
    <path id="Path_103573" data-name="Path 103573" d="M187.513,194.591H173.5L169.165,169.9h23.183Z" transform="translate(1313.065 1721.213)" fill="#d2dceb"/>
    <path id="Path_103574" data-name="Path 103574" d="M317.732,196.1l23.116,144.532,4.449-.014L327.007,196.074Z" transform="translate(1342.982 1726.484)" fill="#7d8488"/>
    <path id="Path_103575" data-name="Path 103575" d="M191.143,196.153,161.038,340.829l-5.994.013,23.6-144.661Z" transform="translate(1310.221 1726.499)" fill="#7d8488"/>
    <rect id="Rectangle_57790" data-name="Rectangle 57790" width="248.714" height="11.131" transform="translate(1453.976 1914.139)" fill="#7d8488"/>
    <rect id="Rectangle_57791" data-name="Rectangle 57791" width="272.563" height="7.39" transform="translate(1442.051 1914.139)" fill="#93999c"/>
    <path id="Path_103576" data-name="Path 103576" d="M302.4,196.169h-9.675l-9.673-61.723H290.4Z" transform="translate(1335.997 1714.073)" fill="#a6aeba"/>
    <path id="Path_103577" data-name="Path 103577" d="M304.791,196.169H267.035l-9.673-61.723h37.757Z" transform="translate(1330.825 1714.073)" fill="#d2dceb"/>
    <rect id="Rectangle_57792" data-name="Rectangle 57792" width="41.041" height="4.605" transform="translate(1597.352 1908.843)" fill="#d2dceb"/>
    <rect id="Rectangle_57793" data-name="Rectangle 57793" width="51.745" height="4.605" transform="translate(1638.393 1908.843)" fill="#a6aeba"/>
    <path id="Path_103578" data-name="Path 103578" d="M280.9,163.669c1.093,4.725.323,9.827-1.718,11.4s-4.582-.988-5.675-5.713-.323-9.827,1.718-11.4,4.582.987,5.675,5.712" transform="translate(1333.977 1718.714)" fill="#a6aeba"/>
    <path id="Path_103579" data-name="Path 103579" d="M232.693,191.258h-5.356a4.486,4.486,0,0,1-4.434-3.8l-2.14-13.782h18.5l-2.14,13.782a4.487,4.487,0,0,1-4.434,3.8" transform="translate(1323.455 1721.974)" fill="#a6aeba"/>
    <path id="Path_103580" data-name="Path 103580" d="M235.545,188c-.195,0-.391-.006-.592-.022l-.25-.019-.2-.154c-.135-.1-3.259-2.548-3.259-6.049,0-3.586,2.381-6.5,5.308-6.5a5.542,5.542,0,0,1,4.309,1.832,5.624,5.624,0,0,1,.988,4.821c-.7,3.9-2.988,6.094-6.3,6.094m-.2-1.687c3.379.107,4.445-2.484,4.846-4.707a4.048,4.048,0,0,0-.622-3.439,3.867,3.867,0,0,0-3.015-1.229c-2,0-3.622,2.161-3.622,4.819,0,2.236,1.816,4.026,2.414,4.557" transform="translate(1325.566 1722.291)" fill="#a6aeba"/>
    <path id="Path_103581" data-name="Path 103581" d="M219.856,190.013h23.451l3.74-4.141h-30.93Z" transform="translate(1322.519 1724.429)" fill="#d2dceb"/>
    <rect id="Rectangle_57794" data-name="Rectangle 57794" width="112.214" height="242.72" transform="translate(1305.896 1824.35)" fill="#b6bfcc"/>
    <rect id="Rectangle_57795" data-name="Rectangle 57795" width="86.377" height="25.451" transform="translate(1318.815 1834.954)" fill="#d2dceb"/>
    <path id="Path_103582" data-name="Path 103582" d="M81.313,137.35H60.652a.962.962,0,0,1-.961-.961v-4.248a.962.962,0,0,1,.961-.961H81.313a.961.961,0,0,1,.961.961v4.248a.961.961,0,0,1-.961.961" transform="translate(1291.02 1713.416)" fill="#fff"/>
    <rect id="Rectangle_57796" data-name="Rectangle 57796" width="86.377" height="25.451" transform="translate(1318.815 1867.344)" fill="#d2dceb"/>
    <path id="Path_103583" data-name="Path 103583" d="M81.313,164.309H60.652a.962.962,0,0,1-.961-.961V159.1a.961.961,0,0,1,.961-.96H81.313a.961.961,0,0,1,.961.96v4.248a.961.961,0,0,1-.961.961" transform="translate(1291.02 1718.844)" fill="#fff"/>
    <rect id="Rectangle_57797" data-name="Rectangle 57797" width="86.377" height="25.451" transform="translate(1318.815 1899.732)" fill="#d2dceb"/>
    <path id="Path_103584" data-name="Path 103584" d="M81.313,191.269H60.652a.962.962,0,0,1-.961-.961V186.06a.961.961,0,0,1,.961-.96H81.313a.961.961,0,0,1,.961.96v4.248a.961.961,0,0,1-.961.961" transform="translate(1291.02 1724.273)" fill="#fff"/>
    <rect id="Rectangle_57798" data-name="Rectangle 57798" width="86.377" height="124.751" transform="translate(1318.815 1932.485)" fill="#d2dceb"/>
    <path id="Path_103585" data-name="Path 103585" d="M81.313,218.532H60.652a.962.962,0,0,1-.961-.961v-4.248a.962.962,0,0,1,.961-.961H81.313a.962.962,0,0,1,.961.961v4.248a.961.961,0,0,1-.961.961" transform="translate(1291.02 1729.763)" fill="#fff"/>
  </g>
</svg>
